<?xml version="1.0" encoding="UTF-8" standalone="no"?>
<svg
   viewBox="0 0 1593.75 652.451"
   version="1.1"
   id="svg8"
   sodipodi:docname="shadowed-camel-margins.svg"
   width="600"
   height="652.45099"
   inkscape:version="1.1.2 (0a00cf5339, 2022-02-04)"
   xmlns:inkscape="http://www.inkscape.org/namespaces/inkscape"
   xmlns:sodipodi="http://sodipodi.sourceforge.net/DTD/sodipodi-0.dtd"
   xmlns="http://www.w3.org/2000/svg"
   xmlns:svg="http://www.w3.org/2000/svg"
   xmlns:rdf="http://www.w3.org/1999/02/22-rdf-syntax-ns#"
   xmlns:cc="http://creativecommons.org/ns#"
   xmlns:dc="http://purl.org/dc/elements/1.1/">
  <defs
     id="defs12" />
  <sodipodi:namedview
     id="namedview10"
     pagecolor="#ffffff"
     bordercolor="#666666"
     borderopacity="1.0"
     inkscape:pageshadow="2"
     inkscape:pageopacity="0.0"
     inkscape:pagecheckerboard="0"
     showgrid="false"
     lock-margins="false"
     fit-margin-top="50"
     fit-margin-left="50"
     fit-margin-right="50"
     fit-margin-bottom="50"
     inkscape:zoom="0.921875"
     inkscape:cx="154.0339"
     inkscape:cy="378.0339"
     inkscape:window-width="1835"
     inkscape:window-height="1016"
     inkscape:window-x="0"
     inkscape:window-y="0"
     inkscape:window-maximized="1"
     inkscape:current-layer="svg8" />
  <title
     id="title2">file_type_perl</title>
  <path
     d="m 584.12887,1057.663 a 369.98528,369.98528 0 0 1 -51.15536,2.1489 73.955124,73.955124 0 0 1 -55.71532,-27.9363 c -4.92684,-10.7447 -3.931,-13.0509 11.32128,-27.0452 a 99.58521,99.58521 0 0 1 37.8948,-20.65075 c 19.13084,-4.8221 22.1184,-7.4427 30.24246,-26.20665 4.97924,-11.5309 14.6233,-33.23 21.54184,-48.2202 a 262.38083,262.38083 0 0 0 25.52526,-132.50077 c -1.46756,-22.22321 -3.82616,-58.17873 -5.24132,-79.87777 a 89.102559,89.102559 0 0 0 -9.0675,-44.9182 c -4.24546,-3.5117 -6.55166,-14.41362 -6.55166,-31.02864 a 200.27111,200.27111 0 0 0 -6.81372,-47.95811 174.53619,174.53619 0 0 1 -6.76132,-41.93062 c 0,-10.48268 -2.09652,-20.07428 -4.71718,-20.96534 -2.62066,-0.891 -3.1448,-18.23982 0,-54.98152 a 302.21492,302.21492 0 0 0 2.14894,-57.96909 c -5.24134,-8.28126 -20.1267,-4.66474 -27.51698,6.55168 -8.17646,12.47437 -33.12518,20.23151 -38.26168,11.95025 -2.30618,-3.77376 -4.87444,-3.24964 -9.0675,1.78206 -8.38612,10.11572 -14.09918,8.85778 -33.80655,-7.39034 -15.72398,-12.78883 -17.97776,-13.57499 -21.7515,-6.81367 -6.2896,11.21643 -24.52942,9.27713 -34.6976,-3.61652 -9.43438,-12.00266 -14.57088,-10.84954 -14.57088,3.19722 0,6.39439 -2.67308,8.28127 -10.48266,7.18057 -7.80958,-1.10066 -10.48266,-4.82199 -11.53092,-17.40117 a 85.643283,85.643283 0 0 0 -6.49926,-26.20662 c -6.02752,-11.84542 -29.50865,-25.15838 -33.38723,-18.92122 a 11.740573,11.740573 0 0 1 -9.11992,4.1931 c -4.61236,0 -6.55166,-5.24134 -6.55166,-18.39708 0,-20.96532 -6.86614,-30.81902 -20.23152,-28.25076 -12.15988,2.30618 -27.30732,-21.96115 -23.37632,-37.52789 1.51998,-6.13236 0.4193,-12.2123 -2.56824,-14.04676 -2.98756,-1.83446 -4.03584,-1.25792 -2.04412,1.9917 7.1282,11.58334 -4.76962,4.24548 -18.86878,-11.5833 a 123.48566,123.48566 0 0 1 -26.20663,-86.74398 90.308061,90.308061 0 0 0 -7.02338,-37.68516 c -3.35444,-2.09652 -3.931,-8.49094 -1.62482,-18.55426 4.40272,-19.445352 2.62068,-55.8202 -2.88272,-57.65465 a 10.063348,10.063348 0 0 1 -4.19306,-9.1199 313.11688,313.11688 0 0 1 22.1184,-63.420096 c 2.14894,-4.350301 10.48265,-21.699081 18.13499,-38.52375 l 14.57088,-30.87141 -17.97776,-8.910234 a 97.069379,97.069379 0 0 0 -43.45059,-9.1199 63.367642,63.367642 0 0 1 -56.60632,-22.53772 79.772998,79.772998 0 0 1 8.80542,-70.49584 c 20.546,-35.9031 24.31976,-37.99962 82.34125,-45.96644 72.59238,-9.95852 72.2779,-9.8537 77.30958,-23.79562 8.12404,-22.38048 14.83294,-32.86311 20.9653,-32.86311 a 10.482654,10.482654 0 0 0 8.80543,-6.81374 10.797133,10.797133 0 0 1 9.01508,-6.81372 36.689288,36.689288 0 0 0 15.25226,-5.5558 c 6.97096,-4.3503 12.15988,-4.3503 24.16252,0 a 94.343889,94.343889 0 0 0 25.21078,5.5558 c 5.24134,0 9.9061,2.09652 9.9061,4.66478 0,2.56824 5.24134,6.60408 11.47852,9.01508 a 220.97435,220.97435 0 0 1 70.70549,56.02979 65.883482,65.883482 0 0 1 8.80544,28.51282 32.07692,32.07692 0 0 0 9.27714,22.43288 133.39177,133.39177 0 0 1 18.71154,23.7432 c 8.85784,14.36124 9.27716,19.2881 6.18478,76.83786 -3.09238,57.549733 -2.77792,62.004853 5.81786,70.024093 8.59578,8.019221 9.22474,8.281301 14.72814,-5.24134 a 283.71302,283.71302 0 0 1 40.7251,-59.698679 196.02563,196.02563 0 0 1 57.65459,-42.245044 411.02486,411.02486 0 0 0 67.08898,-72.80207 165.67834,165.67834 0 0 0 18.86882,-42.45476 c 8.64814,-29.14178 12.84126,-34.33068 53.72357,-65.77863 11.0592,-8.49096 16.51018,-16.40536 16.51018,-23.90046 0,-9.59164 2.09652,-11.16404 14.93776,-11.16404 a 148.5392,148.5392 0 0 0 75.31786,-28.30312 c 13.05096,-11.00678 17.87294,-12.10748 53.77606,-12.2123 a 130.29938,130.29938 0 0 0 44.13191,-4.82206 20.965309,20.965309 0 0 1 13.2606,-4.55992 c 8.2813,0 11.6882,1.3627 38.4189,15.25224 a 69.814474,69.814474 0 0 0 26.2067,7.49508 c 23.6908,0 84.3853,77.04752 84.3853,107.13273 a 441.2149,441.2149 0 0 0 69.3428,129.67047 309.86724,309.86724 0 0 1 53.6712,75.894354 522.08859,522.08859 0 0 0 55.8201,110.592026 624.03241,624.03241 0 0 0 44.1844,52.413308 307.03692,307.03692 0 0 1 35.7983,44.603662 c 12.4219,21.90878 17.3488,50.94574 10.1681,59.64634 -6.2895,7.59992 2.3586,32.70588 14.8854,43.0837 9.6441,8.01924 9.7489,30.71416 0,36.11272 -6.3944,3.56412 -6.604,6.2372 -1.6248,20.02187 a 30.399696,30.399696 0 0 1 -1.7297,30.92382 70.757912,70.757912 0 0 0 -7.495,23.6384 170.39554,170.39554 0 0 1 -18.1875,41.93062 191.36085,191.36085 0 0 0 -18.1874,39.83409 59.646303,59.646303 0 0 1 -11.8453,22.38046 181.08785,181.08785 0 0 0 -18.2399,30.45214 c -12.3695,28.56518 -24.1101,14.6233 -23.9528,-28.46044 a 81.292981,81.292981 0 0 0 -7.0234,-31.8673 49.373301,49.373301 0 0 1 5.8703,-58.33591 80.873675,80.873675 0 0 0 12.1599,-76.78548 97.907987,97.907987 0 0 1 -7.0234,-36.11273 c 0,-12.10744 -1.9917,-22.06596 -4.4027,-22.06596 -2.4111,0 -4.1407,-7.18062 -3.8262,-15.72398 1.0483,-27.9887 -3.669,-21.54186 -12.5268,17.08672 a 715.07426,715.07426 0 0 0 -2.8303,199.17036 287.64402,287.64402 0 0 1 10.7971,114.78508 c -4.4551,21.80394 -4.0358,25.26322 4.9269,37.63276 8.3337,11.58331 9.7489,19.49775 9.382,52.41327 a 158.81221,158.81221 0 0 1 -8.2289,56.60632 263.00979,263.00979 0 0 0 6.8137,166.56932 97.121791,97.121791 0 0 1 9.0151,39.6769 63.315232,63.315232 0 0 0 6.6565,30.8714 30.661762,30.661762 0 0 1 -6.6565,44.49885 c -16.1433,13.575 -61.9525,24.7915 -69.7096,17.0867 a 44.918171,44.918171 0 0 0 -23.6909,-4.9792 56.553919,56.553919 0 0 1 -27.15,-6.1849 c -7.7572,-5.6606 -7.9669,-8.0192 -2.4635,-28.46025 a 101.73416,101.73416 0 0 1 12.3171,-29.6135 146.02337,146.02337 0 0 0 12.6316,-43.241 c 3.5117,-19.7074 9.5392,-46.9099 13.4178,-60.38011 a 396.5588,396.5588 0 0 0 -1.8869,-143.82197 210.70135,210.70135 0 0 1 -6.9185,-52.41326 c -1.8868,-60.85179 -6.6041,-86.69153 -16.5626,-90.36045 a 176.161,176.161 0 0 1 -40.2009,-76.78544 83.546749,83.546749 0 0 0 -18.3971,-41.93062 253.10369,253.10369 0 0 1 -20.9653,-79.61579 l -3.1973,-27.3073 -9.1723,24.477 a 180.87819,180.87819 0 0 1 -14.6233,31.86726 264.94909,264.94909 0 0 0 -17.8729,38.20928 178.20512,178.20512 0 0 0 -13.1033,86.42947 c 0,30.03284 1.52,71.01998 3.6689,91.09428 3.7738,34.90721 3.4593,37.05615 -7.233,50.05463 a 1084.1161,1084.1161 0 0 0 -87.5825,141.04413 c -6.6566,15.72394 -6.6041,17.9253 0.367,25.6301 a 24.686651,24.686651 0 0 0 12.8413,8.38608 c 8.9626,0 29.6659,24.89631 34.383,41.24931 a 181.87405,181.87405 0 0 1 -1.8869,90.308 75.108214,75.108214 0 0 1 -28.4603,7.8096 c -20.6509,2.3586 -23.0619,1.52 -36.3224,-12.684 a 111.53544,111.53544 0 0 1 -20.49362,-33.3873 l -6.2372,-18.1873 -1.3627,20.9653 a 44.760931,44.760931 0 0 1 -9.53925,28.5128 228.31221,228.31221 0 0 1 -113.05544,18.5019 c -31.13348,-2.778 -32.96794,-3.5641 -32.96794,-14.0992 a 86.377069,86.377069 0 0 1 6.44686,-26.626 32.129334,32.129334 0 0 1 25.2632,-20.9653 79.66817,79.66817 0 0 0 51.73188,-53.2518 c 6.76132,-20.59851 6.70892,-21.22745 -5.24134,-37.68521 A 683.25938,683.25938 0 0 0 798.97103,702.61554 C 765.5838,678.2958 758.29836,665.92626 757.66936,632.22456 a 472.76769,472.76769 0 0 0 -3.61652,-49.32087 c -1.93928,-12.84126 -1.25788,-21.6467 1.78206,-23.48116 a 81.502633,81.502633 0 0 0 14.36124,-21.6991 106.55617,106.55617 0 0 0 8.91026,-58.4932 105.76998,105.76998 0 0 1 4.0358,-42.6644 12.421945,12.421945 0 0 0 4.66482,-9.64408 c 0,-5.24128 -5.66064,-6.49922 -28.46042,-5.24128 l -28.46038,1.3627 -1.25794,53.04224 c -0.94346,39.8865 -2.93516,54.40498 -7.96686,58.54562 a 20.231523,20.231523 0 0 0 -6.70886,13.52266 21.279787,21.279787 0 0 1 -7.28546,13.99436 c -5.24132,4.50752 -6.55166,10.48262 -4.4027,23.84804 2.14894,13.36535 1.04826,19.18321 -3.931,22.95697 a 135.12141,135.12141 0 0 0 -5.24132,77.93854 179.25339,179.25339 0 0 1 -22.27564,89.73149 131.03317,131.03317 0 0 0 -7.12822,41.93062 133.96832,133.96832 0 0 1 -4.92684,37.68519 304.31144,304.31144 0 0 0 -5.71306,62.8959 c -0.57652,38.9955 -2.51582,52.93735 -8.59576,62.21445 -4.2979,6.6041 -6.02754,12.6316 -3.82618,13.4703 2.20136,0.8386 2.93514,11.32115 1.51998,23.37615 -3.24962,28.2508 -13.26056,34.9597 -59.33181,39.6245 z m -68.13726,-14.6758 a 211.17307,211.17307 0 0 0 89.6267,0 c 25.63007,-7.1806 29.87555,-13.7323 23.21905,-35.9031 -4.66478,-15.72385 -4.55994,-20.12665 0.7862,-26.20655 10.48266,-12.2647 12.36954,-21.9611 12.68402,-65.88335 a 336.38836,336.38836 0 0 1 4.7172,-58.7553 299.12252,299.12252 0 0 0 6.02752,-46.07133 151.99848,151.99848 0 0 1 8.80544,-44.39401 422.29372,422.29372 0 0 0 15.72398,-42.87404 55.400827,55.400827 0 0 0 2.14894,-45.49472 48.377447,48.377447 0 0 1 -1.31034,-35.06452 84.542605,84.542605 0 0 0 2.04412,-32.96792 c -2.411,-12.73644 -1.51998,-15.72396 4.24548,-15.72396 5.76546,0 6.60406,-3.0924 4.40272,-13.94193 a 30.504522,30.504522 0 0 1 6.91854,-27.09768 49.320887,49.320887 0 0 0 9.74888,-19.70734 11.111613,11.111613 0 0 1 7.07578,-9.2248 c 5.71306,-2.20134 6.55166,-7.75714 4.40272,-28.93206 a 305.98866,305.98866 0 0 1 0.89102,-55.76776 l 3.56414,-29.56108 39.36234,-0.57645 39.36237,-0.57648 v 15.35705 a 29.246604,29.246604 0 0 1 -3.82621,17.71572 71.701356,71.701356 0 0 0 -4.40268,52.09882 25.158371,25.158371 0 0 1 0,24.42456 157.55429,157.55429 0 0 1 -22.06598,45.8616 54.981521,54.981521 0 0 0 0,27.62179 62.89592,62.89592 0 0 1 -0.8386,34.3307 c -7.65238,14.2564 8.9102,46.33328 32.70583,63.26282 a 854.33631,854.33631 0 0 1 82.86542,66.19794 255.51469,255.51469 0 0 1 48.325,59.06973 50.526393,50.526393 0 0 1 -9.1199,14.72825 41.616136,41.616136 0 0 0 -9.11992,18.6591 c 0,15.724 -20.38874,37.1085 -41.93062,44.394 -21.5418,7.2854 -35.27412,20.3363 -35.27412,34.2259 0,11.2164 36.2176,13.7847 79.6158,5.6606 43.39814,-8.124 52.09876,-14.2564 49.47812,-37.0562 -2.14894,-18.7639 7.44268,-35.4314 18.08257,-31.4479 a 52.413269,52.413269 0 0 1 13.9943,24.8438 102.36312,102.36312 0 0 0 20.96536,35.2218 c 11.4785,10.9544 14.9902,12.1598 23.7432,7.9668 a 176.89479,176.89479 0 0 1 18.2398,-7.4951 c 6.2372,-1.9917 7.9668,-7.6523 7.9144,-26.5736 0,-46.1236 -19.8122,-85.43361 -42.9264,-85.43361 -6.0276,0 -11.531,-4.76964 -15.2523,-13.15572 -4.9268,-11.16402 -4.6124,-16.19572 2.0441,-32.96793 a 897.62969,897.62969 0 0 1 89.5743,-145.97096 c 13.4178,-16.92952 13.4178,-16.92952 8.3861,-50.05469 a 351.1689,351.1689 0 0 1 12.7364,-187.53465 145.44682,145.44682 0 0 0 9.2248,-23.53356 25.892155,25.892155 0 0 1 6.1847,-10.48268 139.57654,139.57654 0 0 0 14.7282,-31.44796 c 8.7005,-24.84388 18.0825,-33.80655 24.477,-23.48114 a 220.13573,220.13573 0 0 1 9.1723,40.46304 242.30655,242.30655 0 0 0 20.9653,65.25454 144.24132,144.24132 0 0 1 15.4095,43.29331 64.049016,64.049016 0 0 0 10.4826,28.67008 236.33143,236.33143 0 0 1 17.0344,30.60936 c 3.5117,8.12404 9.0675,14.78054 12.2646,14.78054 10.2206,0 15.724,23.58598 17.0868,75.57991 a 373.07766,373.07766 0 0 0 9.3295,77.362 431.88534,431.88534 0 0 1 -0.5764,161.27572 180.40648,180.40648 0 0 0 -12.684,71.1772 33.125186,33.125186 0 0 1 -8.9103,25.0011 91.146675,91.146675 0 0 0 -14.3088,29.2466 c -2.5683,12.00255 -1.52,14.57085 6.7613,16.77225 a 37.580314,37.580314 0 0 0 20.9653,-2.6207 c 9.3819,-4.2455 12.3695,-3.8786 16.8246,2.1489 4.4552,6.0276 9.1199,6.6565 27.5695,3.1972 23.0618,-4.2978 38.8382,-14.6233 38.8382,-25.47275 a 44.131974,44.131974 0 0 0 -7.3379,-17.4537 34.225864,34.225864 0 0 1 -4.3503,-26.9927 45.285065,45.285065 0 0 0 -4.7696,-30.7142 312.0686,312.0686 0 0 1 -12.2123,-181.66446 318.04372,318.04372 0 0 0 9.4868,-58.28354 c 1.8345,-29.87554 0.9959,-34.59276 -8.0716,-44.18438 -10.902,-11.63577 -12.0027,-23.58597 -5.2414,-57.65461 a 126.73529,126.73529 0 0 0 0,-43.24092 c -2.2537,-11.89784 -5.6082,-31.8673 -7.4426,-44.34166 a 144.24132,144.24132 0 0 0 -7.9668,-31.86726 718.06178,718.06178 0 0 1 4.5075,-178.9913 445.98452,445.98452 0 0 0 8.3337,-43.92232 c 0.9434,-10.22058 3.8262,-13.99434 11.4785,-15.09502 11.1116,-1.5724 19.3405,12.68402 19.3405,33.5969 0,6.07996 2.2014,11.05922 4.9268,11.05922 2.7256,0 3.8786,6.28958 1.8345,18.39706 a 53.251883,53.251883 0 0 0 4.6124,34.64514 96.388005,96.388005 0 0 1 6.0799,49.05881 c -1.4152,27.93626 -3.5641,35.01206 -14.4136,47.90574 -8.8579,10.48266 -11.1117,16.14328 -7.4427,18.44946 a 11.006787,11.006787 0 0 1 2.8827,11.84542 127.52148,127.52148 0 0 0 2.9351,36.68929 l 5.2414,28.40796 12.1075,-15.19984 a 108.91477,108.91477 0 0 0 16.9294,-33.02036 178.57201,178.57201 0 0 1 18.5543,-39.51961 74.322016,74.322016 0 0 0 13.7847,-39.72928 c 0,-9.90608 1.8345,-18.03014 4.0358,-18.03014 7.3379,0 8.5434,-16.71982 2.2014,-31.71002 -8.9103,-21.22737 -7.8096,-26.62593 5.8703,-28.25075 l 12.1075,-1.41516 -13.2082,-15.72396 c -11.793,-13.94192 -13.2606,-19.18326 -13.5226,-47.74848 a 123.17118,123.17118 0 0 0 -40.7776,-93.5578 415.16552,415.16552 0 0 1 -76.8903,-102.36316656 c -6.9709,-14.99023944 -15.724,-33.23006044 -19.026,-40.51550044 a 63.734536,63.734536 0 0 1 -6.3944,-19.654949 218.14403,218.14403 0 0 0 -43.3458,-64.940024 272.81106,272.81106 0 0 1 -54.7719,-80.45436 131.71454,131.71454 0 0 0 -14.6757,-29.71834 82.341247,82.341247 0 0 1 -10.4826,-29.56108 133.86349,133.86349 0 0 0 -47.9057,-82.07917 c -21.9088,-21.54182 -32.077,-28.46038 -41.9306,-28.46038 a 27.56938,27.56938 0 0 1 -18.7116,-6.81374 24.110105,24.110105 0 0 0 -16.4578,-6.81368 c -5.9751,0 -10.7971,-2.35864 -10.7971,-5.24134 0,-2.88274 -3.5117,-2.0441 -8.5433,2.51582 a 20.650829,20.650829 0 0 1 -20.54604,4.7172 48.272621,48.272621 0 0 0 -25.57767,2.62064 c -10.90196,4.50758 -14.93782,4.4551 -20.70328,-0.3147 -5.76544,-4.76962 -8.7006,-4.19304 -17.03428,5.24134 -10.84956,12.10742 -30.66178,23.63838 -37.47552,21.85634 a 66.460026,66.460026 0 0 0 -22.43286,6.76126 57.130465,57.130465 0 0 1 -28.46044,5.24134 c -8.38608,-2.09654 -10.48262,-0.68138 -10.48262,7.75716 0,6.81372 -7.80962,16.35294 -22.74738,28.14592 a 95.706631,95.706631 0 0 0 -22.59009,21.59427 c 0,2.09652 -2.98758,3.82616 -6.6041,3.82616 -7.44268,0 -18.39704,21.48944 -23.21904,45.49472 a 76.942678,76.942678 0 0 1 -13.99436,28.77488 55.872545,55.872545 0 0 0 -10.79714,16.35294 439.01356,439.01356 0 0 1 -65.88348,67.29864 c -5.24132,3.03998 -13.57504,7.4951 -18.92118,9.90612 -14.41366,6.60408 -42.61199,32.443784 -42.61199,39.100264 a 18.554298,18.554298 0 0 1 -6.81372,11.4261 354.6806,354.6806 0 0 0 -52.41328,103.516226 94.972845,94.972845 0 0 1 -6.81372,29.980418 91.199087,91.199087 0 0 0 -6.81372,28.14593 c 0,10.482682 -1.51998,11.635782 -14.78054,10.482682 l -14.78056,-1.41516 -1.31032,-39.834112 c -1.10068,-32.863138 0,-39.834108 5.24132,-39.834108 4.2979,0 7.862,-6.23718 9.69646,-17.0867268 4.7172,-27.9363192 7.18062,-33.7541792 13.20814,-31.4479992 4.3503,1.67722 4.87444,-2.30618 2.25378,-16.719841 a 235.17835,235.17835 0 0 1 0,-53.042199 c 5.9751,-54.404924 -4.19306,-92.299754 -28.14594,-105.141014 -6.60406,-3.5641 -8.07164,-7.70474 -6.02752,-17.13914 a 41.35407,41.35407 0 0 0 -3.72134,-24.8963 215.31371,215.31371 0 0 0 -78.46267,-61.69042 c -5.71304,0 -10.48264,-1.83445 -10.48264,-4.14063 0,-2.3062 -3.72136,-3.1448 -8.2813,-1.9393 a 15.357088,15.357088 0 0 1 -14.204,-4.97926 c -7.4951,-9.01508 -13.88952,-9.17232 -13.88952,-0.31446 a 6.8661384,6.8661384 0 0 1 -6.81374,6.81372 c -3.77374,0 -6.81372,2.30618 -6.81372,5.24131 0,2.93514 -4.66478,4.19306 -11.00678,2.98756 -11.37368,-2.14894 -15.72397,2.62066 -25.15837,29.35144 -5.24132,13.99434 -4.87444,13.94192 -77.62406,23.6908 -52.04637,6.97096 -52.41325,7.1282 -69.02827,25.42044 a 213.26959,213.26959 0 0 0 -26.20662,36.26998 c -8.38612,16.03846 -8.6482,19.07842 -2.83032,30.34728 a 66.669678,66.669678 0 0 0 62.89592,28.61766 c 27.25489,0 62.37179,13.57502 62.37179,23.79562 a 630.79368,630.79368 0 0 1 -37.31826,87.110814 179.25339,179.25339 0 0 0 -6.23717,92.823954 27.621792,27.621792 0 0 1 -1.67722,18.55431 c -3.35444,6.237202 -3.30204,9.382002 0,10.482682 a 134.02073,134.02073 0 0 1 6.49923,50.00222 c 1.67724,47.85332 7.28546,67.40348 19.2881,67.40348 a 6.5516588,6.5516588 0 0 1 5.71304,7.07578 c 0,3.8786 2.14894,5.76546 4.7696,4.14066 8.75302,-5.24132 17.97776,7.80958 17.97776,25.68248 0,9.69646 1.88688,17.66328 4.19306,17.66328 2.30618,0 5.24132,3.5641 6.2896,7.96682 1.5724,5.97509 2.20136,5.24131 2.62066,-2.25378 0.68138,-13.67986 11.4261,-12.99848 17.87292,1.1531 2.83032,6.23715 7.54752,11.37367 10.48266,11.37367 2.93514,0 4.29788,5.71304 2.41102,17.55844 -2.62068,16.45776 -2.14896,17.45362 7.65232,15.72398 a 17.925339,17.925339 0 0 1 16.45777,5.24134 19.707389,19.707389 0 0 0 12.21228,7.18064 6.6040722,6.6040722 0 0 1 6.2896,6.81368 c 0,3.77374 4.03582,6.81374 9.11992,6.81374 5.08408,0 9.1199,3.03998 9.1199,6.81374 a 6.6040722,6.6040722 0 0 0 6.342,6.81368 48.115381,48.115381 0 0 1 20.0743,15.724 c 10.22058,11.63572 14.41364,13.94196 16.2481,9.0675 a 32.024508,32.024508 0 0 1 14.78054,-12.1599 c 10.11578,-4.61234 12.6316,-4.4551 14.41366,0.83864 a 60.327671,60.327671 0 0 0 13.57504,17.08672 c 10.48265,9.85371 12.00263,10.06335 19.60255,3.19722 a 29.927976,29.927976 0 0 1 24.31976,-5.5034 c 11.63576,1.36276 16.1433,0 16.1433,-4.40268 0,-3.45928 6.13234,-8.64822 13.62744,-11.47856 7.4951,-2.83028 13.62746,-6.76126 13.62746,-8.70062 0,-1.93928 3.93098,-3.56404 8.75302,-3.56404 11.42608,0 22.01356,41.93055 15.72398,62.05725 a 283.03166,283.03166 0 0 0 -0.4193,86.95364 c 0.73378,12.31714 3.30204,19.34052 7.1282,19.34052 3.82618,0 5.24134,5.24134 2.98756,19.91706 -1.9917,13.15572 -1.2055,20.96528 2.25378,23.16662 3.45928,2.20134 4.24548,11.16401 2.14894,27.98871 -2.56824,20.5984 -1.67722,26.20662 5.24132,34.1734 6.91856,7.96686 8.59578,16.98194 8.85784,44.18444 a 322.81332,322.81332 0 0 0 5.76546,57.65456 328.2643,328.2643 0 0 1 -31.44796,185.4906 c -2.411,4.4551 -8.49094,18.8687 -13.41778,32.12925 -8.75302,23.4287 -9.69646,24.2674 -35.85068,32.0769 a 102.88725,102.88725 0 0 0 -36.6893,18.29225 c -9.17232,9.7489 -9.22474,10.4826 -1.5724,16.9818 a 100.79072,100.79072 0 0 0 20.96532,12.1599 z m 439.957,-297.1307 a 31.972094,31.972094 0 0 0 -20.96534,-6.81374 c -17.40118,0 -37.94722,-11.37366 -37.94722,-20.96528 A 76.418544,76.418544 0 0 0 878.32451,692.4998 c -27.77902,-28.61766 -29.56106,-36.68928 -14.41364,-65.62138 7.96684,-15.25226 15.724,-24.26734 20.65086,-24.26734 4.9268,0 7.9668,-3.5641 7.9668,-11.0592 0,-9.22471 2.14894,-11.00677 12.99848,-10.48265 a 42.716816,42.716816 0 0 0 18.18742,-2.83034 16.562593,16.562593 0 0 0 0.68134,-23.16664 c -7.28544,-4.50756 -5.24128,-15.724 2.83034,-15.724 5.24134,0 6.65652,-2.77788 4.87446,-9.4868 a 108.39064,108.39064 0 0 1 2.72546,-34.3831 c 4.14064,-19.655 6.81374,-24.47698 12.78884,-22.90464 7.96686,2.09658 10.11578,-5.24128 17.19158,-60.58974 3.87858,-30.29481 11.58331,-45.49471 23.06181,-45.49471 9.5916,0 12.84124,10.48268 15.72404,50.05471 a 782.47768,782.47768 0 0 0 14.6757,107.8141 372.13422,372.13422 0 0 1 5.2413,84.33293 154.46191,154.46191 0 0 1 -21.437,92.4046 c -10.95442,22.43286 -21.9612,43.34574 -24.4246,46.43814 a 12.788838,12.788838 0 0 1 -21.54185,-1.67724 z m -15.724,-18.34464 a 71.806178,71.806178 0 0 1 23.11426,7.33786 c 3.30206,2.72552 12.21226,-11.1116 27.30731,-42.50714 a 160.90874,160.90874 0 0 0 23.95282,-85.85292 252.63197,252.63197 0 0 0 -7.8095,-77.36203 549.13383,549.13383 0 0 1 -12.00268,-79.03918 c -1.46758,-22.5377 -3.77376,-48.11537 -5.24134,-56.81599 l -2.4634,-15.724 -6.55168,15.724 a 55.295999,55.295999 0 0 0 -3.9834,27.46455 54.509801,54.509801 0 0 1 -3.82615,27.15008 70.915152,70.915152 0 0 0 -4.08822,32.7583 c 2.20134,16.35294 1.6248,17.40118 -9.6441,17.40118 -11.26884,0 -11.95018,1.25794 -11.95018,22.48534 a 49.216061,49.216061 0 0 1 -4.14064,25.00108 c -2.25382,1.41518 -3.04,10.48268 -1.72964,20.1267 2.56822,19.02606 0,22.27567 -23.6908,30.19007 -12.1075,4.0358 -13.47026,6.28956 -12.1075,19.96946 1.4676,14.88536 1.0483,15.35706 -11.79296,12.78884 -11.84542,-2.35858 -14.204,-0.89106 -20.96532,13.15568 l -7.54752,15.72402 20.49358,21.90874 a 110.06787,110.06787 0 0 1 20.49358,26.20662 c 0,8.33374 15.724,18.39706 34.12106,21.6991 z M 511.16959,64.746098 c 0.7862,15.09502 3.61652,26.20665 7.02338,27.09767 3.40686,0.89102 5.71304,-2.51584 5.71304,-10.01095 a 91.408745,91.408745 0 0 1 6.81372,-28.250768 95.025257,95.025257 0 0 0 6.81374,-30.0328 74.164776,74.164776 0 0 1 9.4868,-30.1376268 c 5.24132,-9.0675392 6.7613,-13.2605992 3.40686,-9.3295992 a 41.19683,41.19683 0 0 1 -14.04676,10.1157992 c -5.81788,2.20136 -7.96682,8.07164 -7.96682,21.7515008 0,15.095036 -1.83446,19.235676 -9.32956,20.965316 -7.4951,1.72964 -9.17232,5.24132 -7.96682,27.674218 z"
     style="fill:#3a3c5b;stroke-width:52.4132"
     id="path4" />
  <path
     d="m 969.05191,-391.77352 c -28.72248,-3.40686 -50.36918,15.724 -74.37444,26.52114 -19.28806,10.79712 -42.7168,7.9668 -62.10974,16.1957 -14.78054,30.34728 -49.32087,47.59123 -68.13721,75.63233 A 298.75564,298.75564 0 0 1 662.64392,-132.22299 286.33368,286.33368 0 0 0 538.52931,45.66765 c -7.59992,15.724008 -6.39442,39.100328 -14.51848,52.675348 -26.78318,7.495132 -12.52676,-27.04524 -15.72398,-43.240968 -3.87858,-24.63423 17.87294,-40.358206 19.55016,-64.2587068 a 96.388005,96.388005 0 0 0 10.95438,-55.1911492 c -2.93514,-42.664384 9.9061,-94.710744 -20.59842,-129.827644 -18.29224,-10.48266 -12.52678,-32.65348 -19.18326,-49.63538 a 220.55505,220.55505 0 0 0 -68.13725,-59.6987 c -21.96116,-2.14895 -42.2451,-28.40799 -64.57316,-16.92949 -13.94192,16.19569 -39.99131,15.98606 -48.32503,37.37065 -5.24132,27.04526 -36.06032,19.60256 -55.97738,26.20664 -25.57766,9.69646 -58.59803,0.31448 -79.56333,20.02188 -21.54186,21.48944 -54.19532,50.36914 -43.76508,84.1757 23.95286,46.22852 86.21984,22.95702 121.44155,51.05054 A 947.57951,947.57951 0 0 1 222.00558,-8.6324968 526.33405,526.33405 0 0 0 219.6994,113.59525 c 6.44684,40.51548 -4.3503,92.87634 31.76243,121.5464 19.91704,7.18062 18.71154,29.98038 26.20664,46.49056 7.02338,15.19983 22.38046,-5.9227 28.4604,10.11575 17.7157,9.64404 1.9393,29.40384 11.53092,41.93062 13.7847,7.1806 33.49207,6.70888 43.08371,22.32808 a 358.2447,358.2447 0 0 1 51.10294,42.24508 c 12.05506,24.47697 27.83144,-23.79562 41.03958,-5.71304 8.91026,14.93778 26.52113,27.35973 42.92647,14.93778 a 156.76809,156.76809 0 0 0 69.39518,-29.14178 945.32575,945.32575 0 0 1 8.96266,142.45927 612.23939,612.23939 0 0 1 15.19986,104.82651 494.25713,494.25713 0 0 1 15.72398,106.39896 372.868,372.868 0 0 1 -37.16102,218.03916 53.042229,53.042229 0 0 1 -42.2975,41.93055 c -15.25226,6.8138 -47.17196,19.18325 -36.26998,40.67265 a 133.60143,133.60143 0 0 0 132.08143,11.2164 c 26.73076,-12.7364 3.82616,-44.97045 17.50602,-64.25855 17.97776,-68.13715 9.11992,-141.04405 30.13764,-208.86682 a 197.17872,197.17872 0 0 0 15.72398,-110.06791 c 4.14066,-23.06178 -5.50338,-50.7884 9.80128,-69.65722 a 94.763193,94.763193 0 0 1 25.31562,-62.89589 773.0433,773.0433 0 0 0 7.54754,-106.18928 168.45625,168.45625 0 0 1 66.40758,-6.6565 c 0.94346,19.655 -14.25642,42.55956 -9.9585,64.67802 a 102.10105,102.10105 0 0 1 -13.47024,71.70134 149.16817,149.16817 0 0 0 8.80544,120.96979 c 40.98715,43.97472 94.34389,75.0558 132.92007,121.96567 16.45776,10.74474 10.48266,27.09765 1.99168,41.09195 a 80.244714,80.244714 0 0 1 -51.73188,54.1954 c -16.14328,6.342 -42.24514,29.6659 -23.16668,46.2285 a 204.83107,204.83107 0 0 0 114.15608,-7.5475 c 24.94873,-8.9627 15.724,-38.681 25.57767,-57.0257 15.724,12.2124 22.1709,40.0962 37.2659,56.0299 15.7239,22.6949 42.2975,3.8261 60.5897,-3.2497 a 185.80504,185.80504 0 0 0 -19.4978,-96.5452 c -8.753,-19.81227 -41.9306,-20.17915 -40.3582,-44.65613 a 616.90421,616.90421 0 0 1 89.7315,-157.23983 c 26.7309,-25.10592 6.8138,-62.42419 8.2814,-94.34385 a 354.3137,354.3137 0 0 1 56.816,-231.45701 830.95997,830.95997 0 0 0 36.2699,112.16435 326.84914,326.84914 0 0 0 57.6546,117.72026 c 12.422,42.50714 9.2247,89.62667 17.3488,133.70621 a 547.08971,547.08971 0 0 1 -12.684,227.8405 c 2.0965,27.1501 -23.9528,47.172 -21.7515,73.79775 7.3379,24.5819 36.6893,4.8745 51.8891,15.1999 a 58.178729,58.178729 0 0 0 69.3952,-29.98035 327.37328,327.37328 0 0 1 -12.9461,-64.1014 390.6361,390.6361 0 0 1 -13.3653,-194.92498 c 2.4109,-35.06446 23.9528,-78.61988 -3.8262,-108.60023 -7.7572,-32.44384 5.2413,-67.35106 -2.5683,-100.37142 a 674.7684,674.7684 0 0 1 -6.3944,-258.55464 c 4.8745,-11.89782 0.6814,-34.01622 12.9461,-40.62028 a 97.016961,97.016961 0 0 1 16.5102,64.57314 193.9291,193.9291 0 0 1 4.1406,109.07199 c -22.2232,27.83142 -8.5433,65.41175 -5.713,96.96453 3.5641,22.1184 27.0452,6.1848 30.8714,-7.5475 a 619.73449,619.73449 0 0 0 49.4781,-117.45813 c 14.0992,-18.65912 0.7338,-40.35822 0,-59.85593 21.6467,-2.56826 13.4178,-26.5211 1.8345,-36.95134 A 310.91552,310.91552 0 0 0 1405.9689,116.84487 549.02899,549.02899 0 0 1 1304.2348,-25.876496 C 1276.5606,-111.78181 1197.2069,-168.75503 1170.2664,-255.39417 a 186.38159,186.38159 0 0 0 -86.5867,-121.44153 409.08558,409.08558 0 0 0 -60.5897,-21.7515 342.31106,342.31106 0 0 1 -54.03809,6.81368 z m 20.96527,768.37858 a 2040.7631,2040.7631 0 0 1 26.20672,224.90532 218.82541,218.82541 0 0 1 -39.83414,131.92416 c -6.28961,22.2757 -25.47285,0.629 -39.36239,-0.83858 -33.7017,-0.94346 -46.22848,-35.79828 -64.57312,-58.0215 -18.86876,-18.03018 -5.24134,-42.19266 6.97098,-59.27936 13.20812,-9.38202 18.34464,-30.34731 37.10856,-28.72249 20.96534,-0.36704 16.5626,-25.52526 13.6275,-38.94304 12.4743,-18.97364 4.82198,-46.75266 17.19152,-67.24624 21.96116,-9.5392 15.40948,-42.9789 23.16668,-61.84766 6.02751,-13.41777 0.891,-39.25757 17.50599,-44.76097 1.9393,-0.3147 2.5683,0.629 2.2014,2.72552 z"
     style="fill:#3a3c5b;stroke-width:52.4132"
     id="path6" />
  <metadata
     id="metadata829">
    <rdf:RDF>
      <cc:Work
         rdf:about="">
        <dc:title>file_type_perl</dc:title>
      </cc:Work>
    </rdf:RDF>
  </metadata>
</svg>
