<?xml version="1.0" encoding="UTF-8" standalone="no"?>
<svg
   viewBox="0 0 664.0625 276.22553"
   version="1.1"
   id="svg8"
   sodipodi:docname="original.svg"
   width="250"
   height="276.22552"
   inkscape:version="1.1.2 (0a00cf5339, 2022-02-04)"
   xmlns:inkscape="http://www.inkscape.org/namespaces/inkscape"
   xmlns:sodipodi="http://sodipodi.sourceforge.net/DTD/sodipodi-0.dtd"
   xmlns="http://www.w3.org/2000/svg"
   xmlns:svg="http://www.w3.org/2000/svg"
   xmlns:rdf="http://www.w3.org/1999/02/22-rdf-syntax-ns#"
   xmlns:cc="http://creativecommons.org/ns#"
   xmlns:dc="http://purl.org/dc/elements/1.1/">
  <defs
     id="defs12" />
  <sodipodi:namedview
     id="namedview10"
     pagecolor="#ffffff"
     bordercolor="#666666"
     borderopacity="1.0"
     inkscape:pageshadow="2"
     inkscape:pageopacity="0.0"
     inkscape:pagecheckerboard="0"
     showgrid="false"
     lock-margins="false"
     fit-margin-top="0"
     fit-margin-left="0"
     fit-margin-right="0"
     fit-margin-bottom="0"
     inkscape:zoom="1.84375"
     inkscape:cx="53.694915"
     inkscape:cy="49.627119"
     inkscape:window-width="1835"
     inkscape:window-height="1016"
     inkscape:window-x="0"
     inkscape:window-y="0"
     inkscape:window-maximized="1"
     inkscape:current-layer="svg8" />
  <title
     id="title2">file_type_perl</title>
  <path
     d="m 225.6582,503.83154 a 184.99265,184.99265 0 0 1 -25.57768,1.07447 36.977564,36.977564 0 0 1 -27.85766,-13.96813 c -2.46342,-5.37236 -1.9655,-6.52545 5.66064,-13.52263 a 49.792608,49.792608 0 0 1 18.9474,-10.32541 c 9.56542,-2.41102 11.0592,-3.72134 15.12123,-13.10333 2.48962,-5.76545 7.31165,-16.61501 10.77092,-24.1101 a 131.19042,131.19042 0 0 0 12.76263,-66.25039 c -0.73378,-11.11161 -1.91308,-29.08937 -2.62066,-39.93889 a 44.551282,44.551282 0 0 0 -4.53375,-22.4591 c -2.12273,-1.75585 -3.27583,-7.20681 -3.27583,-15.51432 a 100.13556,100.13556 0 0 0 -3.40686,-23.97906 87.2681,87.2681 0 0 1 -3.38066,-20.96531 c 0,-5.24134 -1.04826,-10.03714 -2.35859,-10.48267 -1.31033,-0.4455 -1.5724,-9.11991 0,-27.49076 a 151.10747,151.10747 0 0 0 1.07447,-28.98455 c -2.62067,-4.14063 -10.06335,-2.33237 -13.75849,3.27584 -4.08823,6.23719 -16.56259,10.11576 -19.13084,5.97513 -1.15309,-1.88688 -2.43722,-1.62482 -4.53375,0.89103 -4.19306,5.05786 -7.04959,4.42889 -16.90328,-3.69517 -7.86199,-6.39442 -8.98888,-6.7875 -10.87575,-3.40684 -3.1448,5.60822 -12.26471,4.63857 -17.3488,-1.80826 -4.71719,-6.00133 -7.28544,-5.42477 -7.28544,1.59861 0,3.1972 -1.33654,4.14064 -5.24133,3.59029 -3.90479,-0.55033 -5.24133,-2.411 -5.76546,-8.70059 a 42.821644,42.821644 0 0 0 -3.24963,-13.10331 c -3.01376,-5.92271 -14.754326,-12.57919 -16.693616,-9.46061 a 5.8702866,5.8702866 0 0 1 -4.55996,2.09655 c -2.30618,0 -3.27583,-2.62067 -3.27583,-9.19854 0,-10.48266 -3.43307,-15.40951 -10.11576,-14.12538 -6.07994,1.15309 -13.65366,-10.98058 -11.68816,-18.76395 0.75999,-3.06618 0.20965,-6.10615 -1.28412,-7.02338 -1.49378,-0.91723 -2.01792,-0.62896 -1.02206,0.99585 3.5641,5.79167 -2.38481,2.12274 -9.43439,-5.791651 a 61.742835,61.742835 0 0 1 -13.10332,-43.37199 45.154033,45.154033 0 0 0 -3.51169,-18.84257 c -1.67722,-1.04826 -1.9655,-4.24547 -0.81241,-9.27713 2.20136,-9.72266 1.31034,-27.9100692 -1.44136,-28.8272992 a 5.0316742,5.0316742 0 0 1 -2.09653,-4.55995 156.55845,156.55845 0 0 1 11.0592,-31.7100508 c 1.07447,-2.17515 5.24133,-10.84955 9.0675,-19.261883 l 7.28544,-15.43571 -8.98888,-4.45513 a 48.534692,48.534692 0 0 0 -21.7253,-4.55995 31.683823,31.683823 0 0 1 -28.3031586,-11.26886 39.886501,39.886501 0 0 1 4.40271,-35.247936 c 10.2729986,-17.95155 12.1598786,-18.99981 41.1706286,-22.98322 36.29619,-4.97926 36.13895,-4.92685 38.65479,-11.89781 4.06202,-11.19024 7.41647,-16.43156 10.48265,-16.43156 a 5.2413273,5.2413273 0 0 0 4.402716,-3.40687 5.398567,5.398567 0 0 1 4.50754,-3.40686 18.344645,18.344645 0 0 0 7.62613,-2.7779 c 3.48548,-2.17515 6.07994,-2.17515 12.08126,0 a 47.171947,47.171947 0 0 0 12.60539,2.7779 c 2.62067,0 4.95305,1.04826 4.95305,2.33239 0,1.28412 2.62067,3.30204 5.73926,4.50754 a 110.48718,110.48718 0 0 1 35.35275,28.0149 32.941743,32.941743 0 0 1 4.40272,14.25641 16.038461,16.038461 0 0 0 4.63857,11.21644 66.695888,66.695888 0 0 1 9.35577,11.8716 c 4.42892,7.18062 4.63858,9.64405 3.09239,38.418946 -1.54619,28.774893 -1.38896,31.002453 2.90893,35.012073 4.29789,4.00961 4.61237,4.14065 7.36407,-2.62067 a 141.85652,141.85652 0 0 1 20.36255,-29.849353 98.012819,98.012819 0 0 1 28.8273,-21.12255 205.51244,205.51244 0 0 0 33.54449,-36.401036 82.839177,82.839177 0 0 0 9.43441,-21.22738 c 4.32407,-14.57089 6.42063,-17.16534 26.86179,-32.88932 5.5296,-4.24548 8.25509,-8.20268 8.25509,-11.95023 0,-4.79582 1.04826,-5.58202 7.46888,-5.58202 a 74.269606,74.269606 0 0 0 37.65893,-14.15156 c 6.52548,-5.50339 8.93647,-6.05374 26.88803,-6.10615 a 65.149696,65.149696 0 0 0 22.06598,-2.41103 10.482655,10.482655 0 0 1 6.63027,-2.27996 c 4.14066,0 5.8441,0.68135 19.20947,7.62612 a 34.907239,34.907239 0 0 0 13.10333,3.74754 c 11.8454,0 42.19268,38.52376 42.19268,53.56637 a 220.60746,220.60746 0 0 0 34.67138,64.835236 154.93363,154.93363 0 0 1 26.83559,37.94721 261.04431,261.04431 0 0 0 27.91008,55.2960238 312.01622,312.01622 0 0 0 22.09219,26.2066392 153.51847,153.51847 0 0 1 17.89914,22.30182 c 6.21095,10.95438 8.67438,25.47286 5.08407,29.82316 -3.14478,3.79996 1.17929,16.35294 7.44268,21.54185 4.82204,4.00962 4.87445,15.357081 0,18.056361 -3.19719,1.78206 -3.30202,3.1186 -0.81241,10.01094 a 15.199849,15.199849 0 0 1 -0.86482,15.46191 35.378958,35.378958 0 0 0 -3.74754,11.8192 85.197775,85.197775 0 0 1 -9.09371,20.96531 95.68043,95.68043 0 0 0 -9.0937,19.91705 29.823153,29.823153 0 0 1 -5.92269,11.19023 90.54393,90.54393 0 0 0 -9.11991,15.22607 c -6.18477,14.28259 -12.05505,7.31165 -11.97643,-14.23022 a 40.646493,40.646493 0 0 0 -3.51169,-15.93365 24.686652,24.686652 0 0 1 2.93514,-29.16796 40.43684,40.43684 0 0 0 6.07995,-38.39274 48.953996,48.953996 0 0 1 -3.5117,-18.05637 c 0,-6.053721 -0.99585,-11.032981 -2.20134,-11.032981 -1.20553,0 -2.07035,-3.59031 -1.91312,-7.86199 0.52415,-13.99435 -1.83446,-10.77093 -6.26336,8.54336 a 357.53715,357.53715 0 0 0 -1.41517,99.585191 143.82202,143.82202 0 0 1 5.39857,57.39254 c -2.22755,10.90197 -2.0179,12.63161 2.46343,18.81638 4.16684,5.79166 4.87443,9.74888 4.69099,26.20664 a 79.406109,79.406109 0 0 1 -4.11446,28.30316 131.5049,131.5049 0 0 0 3.40687,83.28468 48.560898,48.560898 0 0 1 4.50755,19.83844 31.657618,31.657618 0 0 0 3.32825,15.43571 15.330882,15.330882 0 0 1 -3.32825,22.24942 c -8.07165,6.78751 -30.97625,12.39575 -34.85482,8.54335 a 22.459087,22.459087 0 0 0 -11.84541,-2.4896 28.276961,28.276961 0 0 1 -13.57504,-3.09241 c -3.87857,-2.83031 -3.98342,-4.0096 -1.23173,-14.23018 a 50.867081,50.867081 0 0 1 6.15857,-14.80677 73.01169,73.01169 0 0 0 6.3158,-21.62046 c 1.75585,-9.8537 4.7696,-23.45495 6.70889,-30.19007 a 198.27941,198.27941 0 0 0 -0.94344,-71.91099 105.35068,105.35068 0 0 1 -3.45925,-26.20663 c -0.94344,-30.4259 -3.30205,-43.34577 -8.2813,-45.18023 a 88.080506,88.080506 0 0 1 -20.10049,-38.39272 41.773377,41.773377 0 0 0 -9.19855,-20.96531 126.55185,126.55185 0 0 1 -10.48264,-39.8079 l -1.59862,-13.65365 -4.58616,12.2385 a 90.439101,90.439101 0 0 1 -7.31165,15.93363 132.47455,132.47455 0 0 0 -8.93647,19.10464 89.102564,89.102564 0 0 0 -6.55165,43.21474 c 0,15.01642 0.76,35.50999 1.83446,45.54714 1.88691,17.45361 1.72965,18.52808 -3.61651,25.02732 a 542.05808,542.05808 0 0 0 -43.79126,70.52207 c -3.32826,7.86197 -3.30205,8.96265 0.18352,12.81505 a 12.343326,12.343326 0 0 0 6.42063,4.19304 c 4.48131,0 14.83295,12.44816 17.19153,20.62463 a 90.937028,90.937028 0 0 1 -0.94344,45.15403 37.554109,37.554109 0 0 1 -14.23019,3.90481 c -10.32543,1.17929 -11.53093,0.75999 -18.1612,-6.34201 a 55.767723,55.767723 0 0 1 -10.24679,-16.69365 l -3.1186,-9.09367 -0.68135,10.48264 a 22.380467,22.380467 0 0 1 -4.76963,14.25642 114.15611,114.15611 0 0 1 -56.52772,9.25094 c -15.56674,-1.38897 -16.48397,-1.78206 -16.48397,-7.0496 a 43.188537,43.188537 0 0 1 3.22343,-13.31298 16.064668,16.064668 0 0 1 12.6316,-10.48264 39.834087,39.834087 0 0 0 25.86594,-26.62594 c 3.38066,-10.29923 3.35446,-10.6137 -2.62067,-18.84258 A 341.62971,341.62971 0 0 0 333.07929,326.30777 C 316.38567,314.1479 312.74295,307.96313 312.42845,291.11228 a 236.38386,236.38386 0 0 0 -1.80826,-24.66044 c -0.96964,-6.42063 -0.62894,-10.82335 0.89103,-11.74058 a 40.751319,40.751319 0 0 0 7.18062,-10.84955 53.27809,53.27809 0 0 0 4.45513,-29.2466 52.884992,52.884992 0 0 1 2.0179,-21.3322 6.2109728,6.2109728 0 0 0 2.33241,-4.82204 c 0,-2.62064 -2.83032,-3.24961 -14.23021,-2.62064 l -14.23019,0.68135 -0.62897,26.52112 c -0.47173,19.94325 -1.46758,27.20249 -3.98343,29.27281 a 10.115762,10.115762 0 0 0 -3.35443,6.76133 10.639894,10.639894 0 0 1 -3.64273,6.99718 c -2.62066,2.25376 -3.27583,5.24131 -2.20135,11.92402 1.07447,6.68268 0.52413,9.59161 -1.9655,11.47849 a 67.560709,67.560709 0 0 0 -2.62066,38.96927 89.626698,89.626698 0 0 1 -11.13782,44.86575 65.516589,65.516589 0 0 0 -3.56411,20.96531 66.984164,66.984164 0 0 1 -2.46342,18.84259 152.15573,152.15573 0 0 0 -2.85653,31.44795 c -0.28826,19.49775 -1.25791,26.4687 -4.29788,31.10727 -2.14895,3.30205 -3.01377,6.3158 -1.91309,6.73513 1.10068,0.41929 1.46757,5.66062 0.75999,11.68813 -1.62481,14.12539 -6.63028,17.47985 -29.66591,19.81223 z m -34.06863,-7.33786 a 105.58654,105.58654 0 0 0 44.81335,0 c 12.81504,-3.59031 14.93778,-6.86615 11.60953,-17.95155 -2.33239,-7.86198 -2.27997,-10.06335 0.3931,-13.10331 5.24133,-6.13236 6.18477,-10.98058 6.34201,-32.94174 a 168.19419,168.19419 0 0 1 2.3586,-29.37763 149.56127,149.56127 0 0 0 3.01376,-23.03566 75.999244,75.999244 0 0 1 4.40272,-22.19701 211.14687,211.14687 0 0 0 7.86199,-21.43702 27.700415,27.700415 0 0 0 1.07447,-22.74736 24.188725,24.188725 0 0 1 -0.65517,-17.53226 42.271305,42.271305 0 0 0 1.02206,-16.48396 c -1.2055,-6.36822 -0.75999,-7.86198 2.12274,-7.86198 2.88273,0 3.30203,-1.5462 2.20136,-6.97097 a 15.252262,15.252262 0 0 1 3.45927,-13.54884 24.660445,24.660445 0 0 0 4.87444,-9.85367 5.5558068,5.5558068 0 0 1 3.53789,-4.6124 c 2.85653,-1.10067 3.27583,-3.87857 2.20136,-14.46603 a 152.99434,152.99434 0 0 1 0.44551,-27.88388 l 1.78207,-14.78054 19.68117,-0.28823 19.68119,-0.28824 v 7.67853 a 14.623303,14.623303 0 0 1 -1.91311,8.85786 35.85068,35.85068 0 0 0 -2.20134,26.04941 12.579186,12.579186 0 0 1 0,12.21228 78.77715,78.77715 0 0 1 -11.03299,22.9308 27.490762,27.490762 0 0 0 0,13.8109 31.447962,31.447962 0 0 1 -0.4193,17.16535 c -3.82619,7.1282 4.4551,23.16664 16.35292,31.63141 a 427.16818,427.16818 0 0 1 41.43271,33.09897 127.75735,127.75735 0 0 1 24.1625,29.53487 25.263198,25.263198 0 0 1 -4.55995,7.3641 20.808069,20.808069 0 0 0 -4.55996,9.32955 c 0,7.862 -10.19437,18.55429 -20.96531,22.19701 -10.7709,3.64273 -17.63706,10.16817 -17.63706,17.11294 0,5.60822 18.1088,6.89236 39.8079,2.83032 21.69907,-4.06202 26.04938,-7.12821 24.73906,-18.52809 -1.07447,-9.38196 3.72134,-17.7157 9.04129,-15.72397 a 26.206636,26.206636 0 0 1 6.99715,12.42193 51.181562,51.181562 0 0 0 10.48267,17.61088 c 5.73925,5.47719 7.4951,6.07992 11.87161,3.9834 a 88.447399,88.447399 0 0 1 9.11991,-3.74755 c 3.11858,-0.99585 3.9834,-3.82616 3.95719,-13.28678 0,-23.06183 -9.90611,-42.71682 -21.46322,-42.71682 -3.01378,0 -5.76548,-2.38482 -7.62615,-6.57786 -2.4634,-5.58201 -2.30617,-8.09786 1.02206,-16.48397 a 448.81487,448.81487 0 0 1 44.78714,-72.98548 c 6.70891,-8.46476 6.70891,-8.46476 4.19307,-25.02735 a 175.58446,175.58446 0 0 1 6.36821,-93.76733 72.723415,72.723415 0 0 0 4.61237,-11.76678 12.946078,12.946078 0 0 1 3.09237,-5.24134 69.788272,69.788272 0 0 0 7.36407,-15.72398 c 4.3503,-12.42194 9.04129,-16.90328 12.23851,-11.74057 a 110.06787,110.06787 0 0 1 4.58616,20.23152 121.15328,121.15328 0 0 0 10.48264,32.62727 72.120664,72.120664 0 0 1 7.70477,21.64666 32.02451,32.02451 0 0 0 5.24131,14.33504 118.16572,118.16572 0 0 1 8.51717,15.30468 c 1.75585,4.06202 4.53375,7.39027 6.13233,7.39027 5.11031,0 7.86201,11.79299 8.54339,37.78996 a 186.53884,186.53884 0 0 0 4.66477,38.681 215.94268,215.94268 0 0 1 -0.28823,80.63784 90.203243,90.203243 0 0 0 -6.34201,35.58862 16.562594,16.562594 0 0 1 -4.45513,12.50054 45.57334,45.57334 0 0 0 -7.15442,14.6233 c -1.28411,6.00134 -0.75999,7.28545 3.38067,8.38615 a 18.790158,18.790158 0 0 0 10.48264,-1.31035 c 4.69098,-2.12272 6.18477,-1.93928 8.41232,1.07447 2.22758,3.01378 4.55996,3.32825 13.78472,1.59861 11.5309,-2.14893 19.41911,-7.31165 19.41911,-12.73642 a 22.065988,22.065988 0 0 0 -3.66893,-8.72683 17.112933,17.112933 0 0 1 -2.17517,-13.49639 22.642534,22.642534 0 0 0 -2.38478,-15.3571 156.03431,156.03431 0 0 1 -6.10616,-90.83221 159.02187,159.02187 0 0 0 4.7434,-29.14177 c 0.91723,-14.93777 0.49794,-17.29638 -4.03581,-22.09219 -5.45098,-5.81789 -6.00133,-11.79299 -2.62067,-28.82731 a 63.367647,63.367647 0 0 0 0,-21.62046 c -1.12688,-5.94892 -2.80411,-15.93365 -3.72134,-22.17083 a 72.120664,72.120664 0 0 0 -3.9834,-15.93363 359.03091,359.03091 0 0 1 2.25376,-89.495661 222.99227,222.99227 0 0 0 4.16687,-21.96116 c 0.4717,-5.11029 1.91308,-6.99717 5.73924,-7.54751 5.55581,-0.7862 9.67023,6.34201 9.67023,16.79845 0,3.03998 1.10071,5.52961 2.46344,5.52961 1.36276,0 1.93928,3.14479 0.91723,9.19853 a 26.625943,26.625943 0 0 0 2.3062,17.322571 48.194005,48.194005 0 0 1 3.03996,24.52941 c -0.70759,13.96813 -1.78206,17.50603 -7.20683,23.95287 -4.42893,5.24133 -5.55581,8.07164 -3.72134,9.22473 a 5.5033937,5.5033937 0 0 1 1.44138,5.92271 63.760745,63.760745 0 0 0 1.46755,18.34465 l 2.62067,14.20398 6.05374,-7.59992 a 54.457389,54.457389 0 0 0 8.46474,-16.51018 89.286011,89.286011 0 0 1 9.27714,-19.75981 37.16101,37.16101 0 0 0 6.89236,-19.86464 c 0,-4.95304 0.91723,-9.01507 2.0179,-9.01507 3.66893,0 4.2717,-8.35991 1.10068,-15.85501 -4.45513,-10.61369 -3.90478,-13.31297 2.93513,-14.12538 l 6.05375,-0.70758 -6.60407,-7.861981 c -5.89651,-6.97096 -6.6303,-9.59163 -6.76133,-23.87424 a 61.585594,61.585594 0 0 0 -20.38878,-46.77889 207.58277,207.58277 0 0 1 -38.44513,-51.18156 c -3.48549,-7.49512 -7.86201,-16.61503 -9.513,-20.25775 a 31.86727,31.86727 0 0 1 -3.19722,-9.827483 109.07202,109.07202 0 0 0 -21.6729,-32.47003 136.40554,136.40554 0 0 1 -27.38593,-40.227196 65.857276,65.857276 0 0 0 -7.33786,-14.85917 41.170626,41.170626 0 0 1 -5.24131,-14.78054 66.931749,66.931749 0 0 0 -23.95286,-41.03959 c -10.95437,-10.77091 -16.03847,-14.23019 -20.96531,-14.23019 a 13.784691,13.784691 0 0 1 -9.35579,-3.40687 12.055053,12.055053 0 0 0 -8.22888,-3.40684 c -2.98755,0 -5.39857,-1.17932 -5.39857,-2.62067 0,-1.44137 -1.75582,-1.02205 -4.27166,1.25791 a 10.325415,10.325415 0 0 1 -10.273,2.3586 24.136312,24.136312 0 0 0 -12.78884,1.31032 c -5.45098,2.25379 -7.46891,2.22755 -10.35164,-0.15735 -2.88272,-2.38481 -4.3503,-2.09652 -8.51714,2.62067 -5.42478,6.05371 -15.33089,11.81919 -18.73776,10.92817 a 33.230015,33.230015 0 0 0 -11.21643,3.38063 28.565234,28.565234 0 0 1 -14.23022,2.62067 c -4.19304,-1.04827 -5.24131,-0.34069 -5.24131,3.87858 0,3.40686 -3.90481,8.17647 -11.37369,14.07296 a 47.853318,47.853318 0 0 0 -11.29505,10.79714 c 0,1.04826 -1.49379,1.91308 -3.30205,1.91308 -3.72134,0 -9.19852,10.74472 -11.60952,22.74736 a 38.471341,38.471341 0 0 1 -6.99718,14.38744 27.936274,27.936274 0 0 0 -5.39857,8.17647 219.50679,219.50679 0 0 1 -32.94174,33.649336 c -2.62066,1.51999 -6.78752,3.74755 -9.46059,4.95306 -7.20683,3.30204 -21.306,16.22191 -21.306,19.55015 a 9.2771493,9.2771493 0 0 1 -3.40686,5.71305 177.34031,177.34031 0 0 0 -26.20664,51.7581238 47.486425,47.486425 0 0 1 -3.40686,14.9902 45.599546,45.599546 0 0 0 -3.40686,14.0729592 c 0,5.24133 -0.75999,5.81788 -7.39027,5.24133 l -7.39028,-0.70758 -0.65516,-19.9170392 c -0.55034,-16.43156 0,-19.9170408 2.62066,-19.9170408 2.14895,0 3.931,-3.11859 4.84823,-8.54337 2.3586,-13.96816 3.59031,-16.87709 6.60407,-15.724 2.17515,0.83861 2.43722,-1.15309 1.12689,-8.35992 a 117.58918,117.58918 0 0 1 0,-26.521113 c 2.98755,-27.20249 -2.09653,-46.149906 -14.07297,-52.570536 -3.30203,-1.78205 -4.03582,-3.85237 -3.01376,-8.56957 a 20.677036,20.677036 0 0 0 -1.86067,-12.44815 107.65686,107.65686 0 0 0 -39.23134,-30.84521 c -2.85652,0 -5.24132,-0.91723 -5.24132,-2.07032 0,-1.1531 -1.86068,-1.5724 -4.14065,-0.96965 a 7.6785445,7.6785445 0 0 1 -7.102,-2.48963 c -3.74755,-4.50754 -6.94476,-4.58616 -6.94476,-0.15723 a 3.4330694,3.4330694 0 0 1 -3.40687,3.40686 c -1.88687,0 -3.40686,1.15309 -3.40686,2.62066 0,1.46757 -2.33239,2.09653 -5.50339,1.49378 -5.68684,-1.07447 -7.861986,1.31033 -12.579186,14.67572 -2.62066,6.99717 -2.43722,6.97096 -38.81203,11.8454 -26.02319,3.48548 -26.20663,3.5641 -34.51414,12.71022 A 106.6348,106.6348 0 0 0 6.8327954,-117.1348 c -4.19306,8.01923 -4.3241,9.53921 -1.41516,15.17364 a 33.334841,33.334841 0 0 0 31.4479586,14.308846 c 13.62745,0 31.1859,6.78751 31.1859,11.89781 a 315.39686,315.39686 0 0 1 -18.65913,43.555433 89.626698,89.626698 0 0 0 -3.11859,46.41197 13.810897,13.810897 0 0 1 -0.83861,9.27715 c -1.67722,3.11859 -1.65102,4.69099 0,5.24133 a 67.01037,67.01037 0 0 1 3.24962,25.0011 c 0.83862,23.92666 3.64273,33.70174 9.64405,33.70174 a 3.2758296,3.2758296 0 0 1 2.85652,3.53789 c 0,1.9393 1.07447,2.88273 2.3848,2.07033 4.37651,-2.62066 8.98888,3.90479 8.98888,12.841241 0,4.84823 0.94344,8.83164 2.09653,8.83164 1.15309,0 2.62066,1.78205 3.1448,3.98341 0.7862,2.98755 1.10068,2.62066 1.31033,-1.12689 0.34069,-6.83993 5.71305,-6.49924 8.93646,0.57655 1.41516,3.11858 3.77376,5.68684 5.24133,5.68684 1.46757,0 2.14894,2.85652 1.20551,8.77922 -1.31034,8.22888 -1.07448,8.72681 3.82616,7.86199 a 8.9626698,8.9626698 0 0 1 8.228886,2.62067 9.8536952,9.8536952 0 0 0 6.10614,3.59032 3.3020363,3.3020363 0 0 1 3.1448,3.40684 c 0,1.88687 2.01791,3.40687 4.55996,3.40687 2.54204,0 4.55995,1.51999 4.55995,3.40687 a 3.3020363,3.3020363 0 0 0 3.171,3.40684 24.057692,24.057692 0 0 1 10.03715,7.862 c 5.11029,5.81786 7.20682,6.97098 8.12405,4.53375 a 16.012255,16.012255 0 0 1 7.39027,-6.07995 c 5.05789,-2.30617 6.3158,-2.22755 7.20683,0.41932 a 30.163837,30.163837 0 0 0 6.78752,8.54336 c 5.24133,4.92686 6.00132,5.03168 9.80128,1.59861 a 14.963989,14.963989 0 0 1 12.15988,-2.7517 c 5.81788,0.68138 8.07165,0 8.07165,-2.20134 0,-1.72964 3.06617,-4.32411 6.81372,-5.73928 3.74755,-1.41514 6.81373,-3.38063 6.81373,-4.35031 0,-0.96964 1.96549,-1.78202 4.37651,-1.78202 5.71304,0 11.00678,20.96528 7.86199,31.02863 a 141.51584,141.51584 0 0 0 -0.20965,43.47682 c 0.36689,6.15857 1.65102,9.67026 3.5641,9.67026 1.91309,0 2.62067,2.62067 1.49378,9.95853 -0.99585,6.57786 -0.60275,10.48264 1.12689,11.58331 1.72964,1.10067 2.12274,5.58201 1.07447,13.99436 -1.28412,10.2992 -0.83861,13.10331 2.62066,17.0867 3.45928,3.98343 4.29789,8.49097 4.42892,22.09222 a 161.40667,161.40667 0 0 0 2.88273,28.82728 164.13216,164.13216 0 0 1 -15.72398,92.7453 c -1.2055,2.22755 -4.24547,9.43438 -6.70889,16.06468 -4.37651,11.71434 -4.84823,12.13366 -17.92534,16.03844 a 51.443626,51.443626 0 0 0 -18.34465,9.14612 c -4.58616,4.87445 -4.61237,5.24133 -0.7862,8.49094 a 50.395362,50.395362 0 0 0 10.48266,6.07995 z M 411.56808,347.92825 a 15.986048,15.986048 0 0 0 -10.48267,-3.40687 c -8.70059,0 -18.97361,-5.68683 -18.97361,-10.48264 a 38.209274,38.209274 0 0 0 -9.35577,-12.78884 c -13.88951,-14.30883 -14.78053,-18.34464 -7.20682,-32.81069 3.98342,-7.62613 7.862,-12.13367 10.32543,-12.13367 2.4634,0 3.9834,-1.78205 3.9834,-5.5296 0,-4.61236 1.07447,-5.50339 6.49924,-5.24133 a 21.358409,21.358409 0 0 0 9.09371,-1.41517 8.2812971,8.2812971 0 0 0 0.34067,-11.58332 c -3.64272,-2.25378 -2.62064,-7.862 1.41517,-7.862 2.62067,0 3.32826,-1.38894 2.43723,-4.7434 a 54.195325,54.195325 0 0 1 1.36273,-17.19155 c 2.07032,-9.8275 3.40687,-12.23849 6.39442,-11.45232 3.98343,1.04829 5.05789,-2.62064 8.59579,-30.29487 1.93929,-15.14741 5.79166,-22.74736 11.53091,-22.74736 4.7958,0 6.42062,5.24134 7.862,25.02736 a 391.23886,391.23886 0 0 0 7.33785,53.90705 186.06712,186.06712 0 0 1 2.62067,42.16647 77.230958,77.230958 0 0 1 -10.71852,46.2023 c -5.47719,11.21643 -10.98058,21.67287 -12.21228,23.21907 a 6.3944192,6.3944192 0 0 1 -10.77093,-0.83862 z m -7.862,-9.17232 a 35.903091,35.903091 0 0 1 11.55713,3.66893 c 1.65103,1.36276 6.10613,-5.5558 13.65366,-21.25357 a 80.454373,80.454373 0 0 0 11.97643,-42.92646 126.31599,126.31599 0 0 0 -3.90478,-38.68102 274.56693,274.56693 0 0 1 -6.00133,-39.51959 c -0.73379,-11.26885 -1.88688,-24.05769 -2.62067,-28.408 l -1.2317,-7.862 -3.27584,7.862 a 27.648001,27.648001 0 0 0 -1.9917,13.73228 27.254902,27.254902 0 0 1 -1.91308,13.57504 35.457578,35.457578 0 0 0 -2.04411,16.37915 c 1.10067,8.17647 0.8124,8.70059 -4.82205,8.70059 -5.63442,0 -5.97509,0.62897 -5.97509,11.24267 a 24.608032,24.608032 0 0 1 -2.07032,12.50054 c -1.12691,0.70759 -1.52,5.24134 -0.86482,10.06335 1.28411,9.51303 0,11.13784 -11.8454,15.09504 -6.05375,2.0179 -6.73513,3.14478 -6.05375,9.98473 0.7338,7.44268 0.52415,7.67853 -5.89648,6.39442 -5.92271,-1.17929 -7.102,-0.44553 -10.48266,6.57784 l -3.77376,7.86201 10.24679,10.95437 a 55.033937,55.033937 0 0 1 10.24679,13.10331 c 0,4.16687 7.862,9.19853 17.06053,10.84955 z M 189.17856,7.3730598 c 0.3931,7.5475092 1.80826,13.1033192 3.51169,13.5488292 1.70343,0.44551 2.85652,-1.25792 2.85652,-5.00547 a 45.704375,45.704375 0 0 1 3.40686,-14.1253692 47.512631,47.512631 0 0 0 3.40687,-15.0164008 37.08239,37.08239 0 0 1 4.7434,-15.06882 c 2.62066,-4.53377 3.38065,-6.6303 1.70343,-4.6648 a 20.598416,20.598416 0 0 1 -7.02338,5.0579 c -2.90894,1.10068 -3.98341,4.03582 -3.98341,10.87575 0,7.5475208 -0.91723,9.6178408 -4.66478,10.4826608 -3.74755,0.86482 -4.58616,2.62066 -3.98341,13.8371 z"
     style="fill:#3a3c5b;stroke-width:26.2066"
     id="path4" />
  <path
     d="m 418.11973,-220.88679 c -14.36124,-1.70343 -25.18459,7.862 -37.18722,13.26057 -9.64403,5.39856 -21.3584,3.9834 -31.05487,8.09785 -7.39027,15.17364 -24.66044,23.79562 -34.06861,37.81617 a 149.37783,149.37783 0 0 1 -50.8933,70.600696 143.16685,143.16685 0 0 0 -62.05731,88.9453538 c -3.79996,7.86199 -3.19721,19.5501492 -7.25924,26.3376592 -13.39159,3.74755 -6.26338,-13.52262 -7.86199,-21.6204692 -1.93929,-12.31712 8.93647,-20.1791108 9.77508,-32.1293608 a 48.194005,48.194005 0 0 0 5.47719,-27.595583 c -1.46757,-21.33221 4.95305,-47.355406 -10.29921,-64.913856 -9.14612,-5.24133 -6.26339,-16.32674 -9.59163,-24.81769 a 110.27753,110.27753 0 0 0 -34.06863,-29.84935 c -10.98058,-1.07448 -21.12255,-14.204 -32.28658,-8.46475 -6.97096,8.09785 -19.995656,7.99303 -24.162516,18.68533 -2.62066,13.52263 -18.03016,9.80128 -27.98869,13.10332 -12.78883,4.84823 -29.29902,0.15724 -39.78167,10.01094 -10.77093,10.74472 -27.0976586,25.18457 -21.8825386,42.08785 11.9764286,23.114276 43.1099186,11.478526 60.7207786,25.525286 a 473.78978,473.78978 0 0 1 -19.05223,46.490593 263.16704,263.16704 0 0 0 -1.15309,61.11385 c 3.22342,20.25773 -2.17515,46.43816 15.88122,60.77319 9.95852,3.59031 9.35577,14.990191 13.10332,23.245281 3.51169,7.59992 11.19023,-2.96135 14.2302,5.05788 8.85785,4.82202 0.96965,14.70192 5.76546,20.96531 6.89235,3.5903 16.746036,3.35444 21.541856,11.16404 a 179.12236,179.12236 0 0 1 25.55147,21.12254 c 6.02753,12.23849 13.91572,-11.89781 20.51979,-2.85652 4.45513,7.46889 13.26057,13.67987 21.46324,7.46889 a 78.384048,78.384048 0 0 0 34.69759,-14.57089 472.6629,472.6629 0 0 1 4.48133,71.22964 306.11971,306.11971 0 0 1 7.59993,52.41326 247.12858,247.12858 0 0 1 7.86199,53.19948 186.43401,186.43401 0 0 1 -18.58051,109.01959 26.521116,26.521116 0 0 1 -21.14875,20.96531 c -7.62613,3.40687 -23.58598,9.59165 -18.13499,20.33635 a 66.800717,66.800717 0 0 0 66.04072,5.60821 c 13.36538,-6.36821 1.91308,-22.48527 8.75301,-32.12933 8.98888,-34.06862 4.55996,-70.52205 15.06882,-104.43343 a 98.589367,98.589367 0 0 0 7.86199,-55.03396 c 2.07033,-11.53089 -2.75169,-25.3942 4.90064,-34.82861 a 47.381599,47.381599 0 0 1 12.65781,-31.44795 386.52167,386.52167 0 0 0 3.77377,-53.09464 84.228128,84.228128 0 0 1 33.20379,-3.32825 c 0.47173,9.8275 -7.12821,21.27978 -4.97925,32.33901 a 51.050527,51.050527 0 0 1 -6.73512,35.85067 74.584088,74.584088 0 0 0 4.40272,60.4849 c 20.49358,21.98736 47.17195,37.5279 66.46004,60.98284 8.22888,5.37237 5.24133,13.54884 0.99584,20.54599 a 40.122359,40.122359 0 0 1 -25.86594,27.09767 c -8.07164,3.17102 -21.12257,14.83295 -11.58334,23.11425 a 102.41554,102.41554 0 0 0 57.07804,-3.77375 c 12.47437,-4.48134 7.862,-19.3405 12.78884,-28.51282 7.862,6.10616 11.08543,20.04808 18.63294,28.01491 7.86197,11.34746 21.14875,1.91308 30.29486,-1.62482 a 92.902525,92.902525 0 0 0 -9.74888,-48.27263 c -4.37651,-9.90611 -20.96531,-10.08955 -20.1791,-22.32804 a 308.45212,308.45212 0 0 1 44.86575,-78.61992 c 13.3654,-12.55296 3.40687,-31.2121 4.14067,-47.17193 a 177.15686,177.15686 0 0 1 28.40799,-115.72851 415.48001,415.48001 0 0 0 18.13499,56.08218 163.42458,163.42458 0 0 0 28.82729,58.86013 c 6.21097,21.25357 4.61236,44.81334 8.67441,66.85311 a 273.54487,273.54487 0 0 1 -6.34201,113.92025 c 1.04826,13.57504 -11.97643,23.58598 -10.87576,36.89893 3.66893,12.29093 18.34465,2.43723 25.94456,7.59995 a 29.089366,29.089366 0 0 0 34.69759,-14.99021 163.68665,163.68665 0 0 1 -6.47304,-32.05072 195.31806,195.31806 0 0 1 -6.68268,-97.46249 c 1.20549,-17.53223 11.97643,-39.30994 -1.91308,-54.30012 -3.87858,-16.22192 2.62066,-33.67553 -1.28415,-50.18571 A 337.38422,337.38422 0 0 1 599.02414,86.988799 c 2.43723,-5.94891 0.34067,-17.00811 6.47304,-20.31014 a 48.508483,48.508483 0 0 1 8.25508,32.28657 96.964555,96.964555 0 0 1 2.07032,54.536001 c -11.11161,13.91571 -4.27166,32.70588 -2.85652,48.48227 1.78205,11.0592 13.52263,3.0924 15.43571,-3.77375 a 309.86726,309.86726 0 0 0 24.73907,-58.72907 c 7.04959,-9.32956 0.36691,-20.17911 0,-29.92797 10.82334,-1.28413 6.70891,-13.260551 0.91723,-18.475671 a 155.45777,155.45777 0 0 0 -17.47983,-57.65461 274.51451,274.51451 0 0 1 -50.86708,-71.36066 C 571.87406,-80.890914 532.19722,-109.37754 518.727,-152.69711 a 93.1908,93.1908 0 0 0 -43.29335,-60.72077 204.5428,204.5428 0 0 0 -30.29486,-10.87575 171.15554,171.15554 0 0 1 -27.01906,3.40684 z m 10.48264,384.18931 a 1020.3816,1020.3816 0 0 1 13.10334,112.45267 109.41271,109.41271 0 0 1 -19.91705,65.96208 c -3.14481,11.13785 -12.73643,0.3145 -19.6812,-0.41929 -16.85085,-0.47173 -23.11424,-17.89914 -32.28656,-29.01075 -9.43438,-9.01509 -2.62067,-21.09633 3.48549,-29.63968 6.60406,-4.69101 9.17232,-15.17366 18.55428,-14.36125 10.48267,-0.18352 8.2813,-12.76263 6.81375,-19.47152 6.23715,-9.48682 2.41099,-23.37633 8.59576,-33.62312 10.98058,-4.7696 7.70474,-21.48945 11.58334,-30.92383 3.01376,-6.70889 0.4455,-19.62879 8.753,-22.38049 0.96965,-0.15735 1.28415,0.3145 1.1007,1.36276 z"
     style="fill:#3a3c5b;stroke-width:26.2066"
     id="path6" />
  <metadata
     id="metadata829">
    <rdf:RDF>
      <cc:Work
         rdf:about="">
        <dc:title>file_type_perl</dc:title>
      </cc:Work>
    </rdf:RDF>
  </metadata>
</svg>
